<mxfile host="app.diagrams.net" modified="2022-05-26T02:35:31.590Z" agent="5.0 (Windows NT 10.0; Win64; x64) AppleWebKit/537.36 (KHTML, like Gecko) Chrome/101.0.0.0 Safari/537.36" etag="DulrnLs7zAlHv-EfNJ5R" version="18.1.2" type="github">
  <diagram name="Page-1" id="9f46799a-70d6-7492-0946-bef42562c5a5">
    <mxGraphModel dx="1422" dy="794" grid="1" gridSize="10" guides="1" tooltips="1" connect="1" arrows="1" fold="1" page="1" pageScale="1" pageWidth="1100" pageHeight="850" background="none" math="0" shadow="0">
      <root>
        <mxCell id="0" />
        <mxCell id="1" parent="0" />
        <mxCell id="axUW-og97hFxliZSrhcH-1" value="" style="endArrow=none;dashed=1;html=1;rounded=0;" edge="1" parent="1">
          <mxGeometry width="50" height="50" relative="1" as="geometry">
            <mxPoint x="160" y="240" as="sourcePoint" />
            <mxPoint x="960" y="240" as="targetPoint" />
          </mxGeometry>
        </mxCell>
        <mxCell id="axUW-og97hFxliZSrhcH-2" value="user space" style="text;html=1;strokeColor=none;fillColor=none;align=center;verticalAlign=middle;whiteSpace=wrap;rounded=0;" vertex="1" parent="1">
          <mxGeometry x="800" y="210" width="140" height="30" as="geometry" />
        </mxCell>
        <mxCell id="axUW-og97hFxliZSrhcH-3" value="Kernel space" style="text;html=1;strokeColor=none;fillColor=none;align=center;verticalAlign=middle;whiteSpace=wrap;rounded=0;" vertex="1" parent="1">
          <mxGeometry x="806" y="250" width="140" height="30" as="geometry" />
        </mxCell>
        <mxCell id="axUW-og97hFxliZSrhcH-4" value="" style="endArrow=none;dashed=1;html=1;rounded=0;" edge="1" parent="1">
          <mxGeometry width="50" height="50" relative="1" as="geometry">
            <mxPoint x="160" y="480" as="sourcePoint" />
            <mxPoint x="960" y="480" as="targetPoint" />
          </mxGeometry>
        </mxCell>
        <mxCell id="axUW-og97hFxliZSrhcH-5" value="Hardware" style="text;html=1;strokeColor=none;fillColor=none;align=center;verticalAlign=middle;whiteSpace=wrap;rounded=0;" vertex="1" parent="1">
          <mxGeometry x="837" y="475" width="60" height="30" as="geometry" />
        </mxCell>
        <mxCell id="axUW-og97hFxliZSrhcH-6" value="2D Test Application" style="rounded=1;whiteSpace=wrap;html=1;" vertex="1" parent="1">
          <mxGeometry x="350" y="130" width="240" height="60" as="geometry" />
        </mxCell>
        <mxCell id="axUW-og97hFxliZSrhcH-7" value="2D Proxy" style="rounded=1;whiteSpace=wrap;html=1;" vertex="1" parent="1">
          <mxGeometry x="240" y="260" width="120" height="60" as="geometry" />
        </mxCell>
        <mxCell id="axUW-og97hFxliZSrhcH-8" value="Memory Allocator" style="rounded=1;whiteSpace=wrap;html=1;" vertex="1" parent="1">
          <mxGeometry x="460" y="260" width="120" height="60" as="geometry" />
        </mxCell>
        <mxCell id="axUW-og97hFxliZSrhcH-9" value="2D Driver" style="rounded=1;whiteSpace=wrap;html=1;" vertex="1" parent="1">
          <mxGeometry x="400" y="410" width="310" height="60" as="geometry" />
        </mxCell>
        <mxCell id="axUW-og97hFxliZSrhcH-10" value="2D Hardware" style="rounded=1;whiteSpace=wrap;html=1;" vertex="1" parent="1">
          <mxGeometry x="194" y="550" width="120" height="60" as="geometry" />
        </mxCell>
        <mxCell id="axUW-og97hFxliZSrhcH-11" value="System DMA" style="rounded=1;whiteSpace=wrap;html=1;" vertex="1" parent="1">
          <mxGeometry x="444" y="550" width="120" height="60" as="geometry" />
        </mxCell>
        <mxCell id="axUW-og97hFxliZSrhcH-12" value="" style="endArrow=classic;startArrow=classic;html=1;rounded=0;exitX=1;exitY=0.5;exitDx=0;exitDy=0;entryX=0;entryY=0.5;entryDx=0;entryDy=0;" edge="1" parent="1" source="axUW-og97hFxliZSrhcH-10" target="axUW-og97hFxliZSrhcH-11">
          <mxGeometry width="50" height="50" relative="1" as="geometry">
            <mxPoint x="364" y="320" as="sourcePoint" />
            <mxPoint x="414" y="270" as="targetPoint" />
            <Array as="points" />
          </mxGeometry>
        </mxCell>
        <mxCell id="axUW-og97hFxliZSrhcH-13" value="" style="endArrow=classic;startArrow=classic;html=1;rounded=0;exitX=1;exitY=0.5;exitDx=0;exitDy=0;entryX=0;entryY=0.5;entryDx=0;entryDy=0;dashed=1;" edge="1" parent="1">
          <mxGeometry width="50" height="50" relative="1" as="geometry">
            <mxPoint x="314" y="590" as="sourcePoint" />
            <mxPoint x="444" y="590" as="targetPoint" />
            <Array as="points" />
          </mxGeometry>
        </mxCell>
        <mxCell id="axUW-og97hFxliZSrhcH-14" value="" style="endArrow=classic;startArrow=classic;html=1;rounded=0;exitX=1;exitY=0.5;exitDx=0;exitDy=0;entryX=0;entryY=0.5;entryDx=0;entryDy=0;dashed=1;" edge="1" parent="1">
          <mxGeometry width="50" height="50" relative="1" as="geometry">
            <mxPoint x="314" y="570" as="sourcePoint" />
            <mxPoint x="444" y="570" as="targetPoint" />
            <Array as="points" />
          </mxGeometry>
        </mxCell>
        <mxCell id="axUW-og97hFxliZSrhcH-16" value="&lt;ul&gt;&lt;li&gt;open&lt;/li&gt;&lt;li&gt;ioctl&lt;/li&gt;&lt;li&gt;close&lt;/li&gt;&lt;/ul&gt;" style="text;html=1;strokeColor=none;fillColor=none;align=center;verticalAlign=middle;whiteSpace=wrap;rounded=0;imageAspect=1;autosize=1;enumerate=0;spacing=0;labelPosition=center;verticalLabelPosition=middle;textDirection=ltr;" vertex="1" parent="1">
          <mxGeometry x="300" y="120" width="30" height="70" as="geometry" />
        </mxCell>
        <mxCell id="axUW-og97hFxliZSrhcH-17" value="DDR" style="rounded=1;whiteSpace=wrap;html=1;" vertex="1" parent="1">
          <mxGeometry x="594" y="550" width="300" height="60" as="geometry" />
        </mxCell>
        <mxCell id="axUW-og97hFxliZSrhcH-18" value="2D IF(Internal)" style="rounded=1;whiteSpace=wrap;html=1;" vertex="1" parent="1">
          <mxGeometry x="240" y="360" width="120" height="60" as="geometry" />
        </mxCell>
        <mxCell id="axUW-og97hFxliZSrhcH-19" value="Common Logic" style="rounded=1;whiteSpace=wrap;html=1;" vertex="1" parent="1">
          <mxGeometry x="400" y="360" width="310" height="40" as="geometry" />
        </mxCell>
        <mxCell id="axUW-og97hFxliZSrhcH-20" value="&lt;ul&gt;&lt;li&gt;Support multiple clients&lt;/li&gt;&lt;li&gt;Wake up the client threads&lt;/li&gt;&lt;/ul&gt;" style="text;html=1;strokeColor=none;fillColor=none;align=left;verticalAlign=middle;whiteSpace=wrap;rounded=0;" vertex="1" parent="1">
          <mxGeometry x="690" y="365" width="240" height="30" as="geometry" />
        </mxCell>
      </root>
    </mxGraphModel>
  </diagram>
</mxfile>
